<?xml version="1.0" encoding="UTF-8"?>
<svg xmlns="http://www.w3.org/2000/svg" xmlns:xlink="http://www.w3.org/1999/xlink" viewBox="0 0 32 32" width="32px" height="32px">
<g id="surface65884772">
<path style=" stroke:none;fill-rule:nonzero;fill:rgb(69.803923%,49.803922%,16.078432%);fill-opacity:1;" d="M 28.777344 8.246094 C 28.46875 7.101562 27.566406 6.199219 26.417969 5.890625 C 24.339844 5.332031 16 5.332031 16 5.332031 C 16 5.332031 7.660156 5.332031 5.582031 5.890625 C 4.433594 6.199219 3.53125 7.101562 3.222656 8.246094 C 2.667969 10.328125 2.667969 16 2.667969 16 C 2.667969 16 2.667969 21.671875 3.222656 23.753906 C 3.53125 24.898438 4.433594 25.800781 5.582031 26.109375 C 7.660156 26.667969 16 26.667969 16 26.667969 C 16 26.667969 24.339844 26.667969 26.417969 26.109375 C 27.566406 25.800781 28.46875 24.898438 28.777344 23.753906 C 29.332031 21.671875 29.332031 16 29.332031 16 C 29.332031 16 29.332031 10.328125 28.777344 8.246094 Z M 13.332031 19.464844 L 13.332031 12.535156 C 13.332031 12.023438 13.890625 11.703125 14.332031 11.957031 L 20.332031 15.421875 C 20.777344 15.679688 20.777344 16.320312 20.332031 16.578125 L 14.332031 20.042969 C 13.890625 20.296875 13.332031 19.976562 13.332031 19.464844 Z M 13.332031 19.464844 "/>
</g>
</svg>
