<svg width="21" height="21" viewBox="0 0 21 21" fill="none" xmlns="http://www.w3.org/2000/svg">
<g filter="url(#filter0_i_1491_17387)">
<circle cx="10.5552" cy="10.1297" r="9.94489" fill="#FAFAFA" fill-opacity="0.9"/>
</g>
<path d="M15.678 5.34155L11.0001 8.80286L11.87 6.76301L15.678 5.34155Z" fill="#E17726"/>
<path d="M5.29308 5.34546L9.0909 6.76309L9.91689 8.82968L5.29308 5.34546ZM13.7961 12.7026L15.8637 12.742L15.1411 15.1967L12.6182 14.5021L13.7961 12.7026ZM7.16463 12.7026L8.33816 14.5021L5.81952 15.1967L5.10132 12.742L7.16463 12.7026Z" fill="#E27625"/>
<path d="M9.80323 8.3034L9.88772 11.0324L7.35938 10.9174L8.07856 9.83239L8.08767 9.82195L9.80323 8.3034ZM11.1286 8.27295L12.8704 9.82204L12.8794 9.83243L13.5986 10.9174L11.0708 11.0324L11.1286 8.27295ZM8.41085 12.7107L9.79139 13.7863L8.18771 14.5606L8.41085 12.7107ZM12.5474 12.7105L12.7659 14.5606L11.1667 13.7862L12.5474 12.7105Z" fill="#E27625"/>
<path d="M11.2032 13.6848L12.826 14.4706L11.3164 15.188L11.3321 14.7139L11.2032 13.6848ZM9.75665 13.6852L9.63277 14.7061L9.64295 15.1874L8.12988 14.4706L9.75665 13.6852Z" fill="#D5BFB2"/>
<path d="M9.28729 11.3887L9.71135 12.2799L8.26758 11.8569L9.28729 11.3887ZM11.6714 11.3888L12.696 11.8569L11.2475 12.2798L11.6714 11.3888Z" fill="#233447"/>
<path d="M8.52207 12.7015L8.28871 14.6195L7.03784 12.7434L8.52207 12.7015ZM12.4378 12.7015L13.9221 12.7434L12.6665 14.6196L12.4378 12.7015ZM13.636 10.8088L12.5558 11.9097L11.723 11.5291L11.3242 12.3674L11.0629 10.9259L13.636 10.8088ZM7.32325 10.8088L9.8969 10.9259L9.63547 12.3674L9.23666 11.5293L8.40824 11.9098L7.32325 10.8088Z" fill="#CC6228"/>
<path d="M7.25098 10.583L8.4731 11.8232L8.51543 13.0474L7.25098 10.583ZM13.7111 10.5808L12.4443 13.0496L12.492 11.8232L13.7111 10.5808ZM9.83766 10.6586L9.88685 10.9682L10.0084 11.7394L9.93024 14.1083L9.56081 12.2053L9.56069 12.1856L9.83766 10.6586ZM11.1225 10.6543L11.4002 12.1856L11.4001 12.2053L11.0297 14.113L11.0151 13.6359L10.9573 11.7254L11.1225 10.6543Z" fill="#E27525"/>
<path d="M12.6002 11.7739L12.5588 12.8376L11.2696 13.8421L11.009 13.658L11.3011 12.1532L12.6002 11.7739ZM8.36414 11.7739L9.65869 12.1532L9.95083 13.658L9.69021 13.8421L8.40093 12.8375L8.36414 11.7739Z" fill="#F5841F"/>
<path d="M7.88281 14.2358L9.53223 15.0174L9.52525 14.6836L9.66327 14.5625H11.2957L11.4387 14.6832L11.4282 15.0167L13.0672 14.2378L12.2696 14.8969L11.3053 15.5592H9.65003L8.68632 14.8941L7.88281 14.2358Z" fill="#C0AC9D"/>
<path d="M11.085 13.5808L11.3182 13.7456L11.4549 14.8359L11.2571 14.669H9.70379L9.50977 14.8393L9.64195 13.7457L9.87523 13.5808H11.085Z" fill="#161616"/>
<path d="M15.3697 5.4375L15.9312 7.12205L15.5805 8.82535L15.8302 9.01796L15.4923 9.27577L15.7463 9.47192L15.41 9.77816L15.6164 9.92767L15.0685 10.5676L12.8213 9.91324L12.8018 9.9028L11.1824 8.53675L15.3697 5.4375ZM5.59083 5.4375L9.77809 8.53675L8.15865 9.9028L8.13919 9.91324L5.89195 10.5676L5.34405 9.92767L5.55033 9.77828L5.21425 9.47192L5.46771 9.27599L5.12473 9.01745L5.38386 8.82471L5.0293 7.12214L5.59083 5.4375Z" fill="#763E1A"/>
<path d="M12.7113 9.76984L15.0923 10.4631L15.8659 12.8473H13.825L12.4189 12.865L13.4415 10.8717L12.7113 9.76984ZM8.24898 9.76984L7.5186 10.8717L8.54137 12.865L7.13584 12.8473H5.09863L5.86785 10.4631L8.24898 9.76984ZM11.987 6.75146L11.321 8.55023L11.1796 10.9802L11.1255 11.7418L11.1212 13.6875H9.83895L9.83478 11.7455L9.78053 10.9795L9.63914 8.55023L8.97323 6.75146H11.987Z" fill="#F5841F"/>
<defs>
<filter id="filter0_i_1491_17387" x="0.610352" y="0.184814" width="19.8898" height="22.8365" filterUnits="userSpaceOnUse" color-interpolation-filters="sRGB">
<feFlood flood-opacity="0" result="BackgroundImageFix"/>
<feBlend mode="normal" in="SourceGraphic" in2="BackgroundImageFix" result="shape"/>
<feColorMatrix in="SourceAlpha" type="matrix" values="0 0 0 0 0 0 0 0 0 0 0 0 0 0 0 0 0 0 127 0" result="hardAlpha"/>
<feOffset dy="2.94663"/>
<feGaussianBlur stdDeviation="1.47332"/>
<feComposite in2="hardAlpha" operator="arithmetic" k2="-1" k3="1"/>
<feColorMatrix type="matrix" values="0 0 0 0 0 0 0 0 0 0 0 0 0 0 0 0 0 0 0.25 0"/>
<feBlend mode="normal" in2="shape" result="effect1_innerShadow_1491_17387"/>
</filter>
</defs>
</svg>
