<svg width="94" height="88" viewBox="0 0 94 88" fill="none" xmlns="http://www.w3.org/2000/svg">
<g clip-path="url(#clip0_2053_19967)">
<path d="M91.6913 0L51.4141 29.8023L58.904 12.239L91.6913 0Z" fill="#E17726"/>
<path d="M2.27219 0.0351562L34.9719 12.2411L42.0838 30.0347L2.27219 0.0351562ZM75.4842 63.3812L93.2862 63.72L87.0646 84.8554L65.3422 78.8747L75.4842 63.3812ZM18.3865 63.3812L28.4907 78.8747L6.80493 84.8558L0.621094 63.72L18.3865 63.3812Z" fill="#E27625"/>
<path d="M41.1122 25.5026L41.8397 48.9997L20.0703 48.0094L26.2626 38.6674L26.341 38.5776L41.1122 25.5026ZM52.524 25.2405L67.5206 38.5783L67.5984 38.6678L73.7906 48.0097L52.026 48.9997L52.524 25.2405ZM29.1237 63.4497L41.0103 72.7113L27.2023 79.3777L29.1237 63.4497ZM64.7402 63.4482L66.6216 79.3781L52.8521 72.7106L64.7402 63.4482Z" fill="#E27625"/>
<path d="M53.1605 71.8389L67.133 78.6046L54.1358 84.7815L54.2707 80.699L53.1605 71.8389ZM40.7059 71.8418L39.6393 80.6323L39.7269 84.7767L26.6992 78.6046L40.7059 71.8418Z" fill="#D5BFB2"/>
<path d="M36.6705 52.0664L40.3217 59.74L27.8906 56.0983L36.6705 52.0664ZM57.1983 52.0671L66.0196 56.0983L53.5478 59.7389L57.1983 52.0671Z" fill="#233447"/>
<path d="M30.0763 63.3712L28.067 79.8859L17.2969 63.7324L30.0763 63.3712ZM63.7913 63.3716L76.5711 63.7324L65.7607 79.8866L63.7913 63.3716ZM74.1078 47.0754L64.8073 56.5541L57.6364 53.2772L54.2033 60.4947L51.9527 48.0834L74.1078 47.0754ZM19.7543 47.0754L41.9138 48.0834L39.6628 60.4947L36.229 53.2783L29.0962 56.5545L19.7543 47.0754Z" fill="#CC6228"/>
<path d="M19.125 45.1304L29.6476 55.8081L30.0121 66.3494L19.125 45.1304ZM74.7472 45.1113L63.8404 66.3681L64.251 55.8081L74.7472 45.1113ZM41.3967 45.7809L41.8202 48.4465L42.8667 55.0872L42.1938 75.4831L39.013 59.0986L39.0119 58.9292L41.3967 45.7809ZM52.4594 45.7438L54.8504 58.9292L54.8493 59.0986L51.6604 75.5241L51.5343 71.4156L51.0367 54.9662L52.4594 45.7438Z" fill="#E27525"/>
<path d="M65.1875 55.3838L64.8315 64.5424L53.731 73.191L51.487 71.6055L54.0024 58.6493L65.1875 55.3838ZM28.7148 55.3838L39.8611 58.6493L42.3765 71.6055L40.1325 73.191L29.0316 64.5417L28.7148 55.3838Z" fill="#F5841F"/>
<path d="M24.5742 76.5811L38.776 83.3101L38.7158 80.4366L39.9042 79.3934H53.96L55.1913 80.4329L55.1003 83.3043L69.2122 76.5979L62.3453 82.2725L54.0421 87.9752H39.7902L31.4925 82.249L24.5742 76.5811Z" fill="#C0AC9D"/>
<path d="M52.1454 70.9426L54.1533 72.3613L55.3299 81.7494L53.6271 80.3117H40.2526L38.582 81.7784L39.7202 72.362L41.7288 70.9426H52.1454Z" fill="#161616"/>
<path d="M89.0318 0.824219L93.8667 15.3285L90.8472 29.994L92.9973 31.6525L90.0878 33.8723L92.2746 35.5611L89.379 38.1978L91.1566 39.4852L86.4391 44.9947L67.0901 39.3609L66.9225 39.2711L52.9793 27.5091L89.0318 0.824219ZM4.83487 0.824219L40.8877 27.5091L26.9441 39.2711L26.7766 39.3609L7.42757 44.9947L2.71003 39.4852L4.48617 38.1989L1.59243 35.5611L3.77483 33.8741L0.8217 31.6481L3.05287 29.9885L0 15.3292L4.83487 0.824219Z" fill="#763E1A"/>
<path d="M66.1473 38.13L86.6487 44.0989L93.3092 64.6271H75.7371L63.6297 64.7797L72.4349 47.6167L66.1473 38.13ZM27.7265 38.13L21.4378 47.6167L30.244 64.7797L18.1422 64.6271H0.601562L7.22466 44.0993L27.7265 38.13ZM59.911 12.1414L54.1767 27.629L52.9597 48.551L52.4941 55.1088L52.457 71.8611H41.4163L41.3804 55.1404L40.9133 48.5455L39.6959 27.629L33.9624 12.1414H59.911Z" fill="#F5841F"/>
</g>
<defs>
<clipPath id="clip0_2053_19967">
<rect width="93.8667" height="88" fill="white"/>
</clipPath>
</defs>
</svg>
