<svg width="48" height="48" viewBox="0 0 36 36" xmlns="http://www.w3.org/2000/svg"><g fill="none"><path d="M16.986 0h2.04c4.11.233 8.12 1.908 11.144 4.704C33.62 7.83 35.75 12.34 36 16.986v2.04c-.233 4.108-1.908 8.12-4.705 11.144-3.125 3.45-7.635 5.58-12.281 5.83h-2.04c-4.11-.233-8.122-1.91-11.146-4.707C2.378 28.167.25 23.657 0 19.011v-2.038C.256 12.33 2.385 7.822 5.836 4.7 8.862 1.904 12.876.23 16.986 0" fill="#EA332A"></path><path d="M25.26 10.474 7 7l9.61 25L30 15.134l-4.74-4.66zm-.293 1.531 2.793 2.745-7.64 1.43 4.847-4.175zm-6.506 3.889-8.053-6.905 13.162 2.504-5.109 4.401zm-.574 1.221-1.312 11.223-7.08-18.42 8.392 7.197zm1.216.596 8.46-1.584-9.704 12.223 1.244-10.64z" fill="#FFF"></path></g></svg>