<svg xmlns="http://www.w3.org/2000/svg" id="a" viewBox="0 0 75 75"><path d="M37.5,74.49C17.1,74.49,.51,57.9,.51,37.5S17.1,.51,37.5,.51s36.99,16.59,36.99,36.99-16.6,36.99-36.99,36.99Zm0-72C18.2,2.49,2.49,18.2,2.49,37.5s15.7,35.01,35.01,35.01,35.01-15.7,35.01-35.01S56.8,2.49,37.5,2.49Z"></path><path d="M49.27,41.85c-1.25,0-2.21,.95-2.31,2.12l-1.26,.43c-.76-1.05-2-1.73-3.39-1.73-1.06,0-2.03,.4-2.77,1.05l-2.81-1.71c.12-.39,.18-.79,.18-1.22,0-.94-.32-1.81-.84-2.52l1.85-2.44c.55,.28,1.17,.44,1.82,.44,1.35,0,2.55-.64,3.32-1.63l1.88,1.38c-.04,.16-.06,.33-.06,.5-.06,1.26,1,2.32,2.32,2.32s2.32-1.07,2.32-2.32c0-1.32-1.07-2.32-2.32-2.32-.66,0-1.24,.27-1.66,.69l-1.87-1.37c.17-.45,.26-.94,.26-1.46,0-1.29-.58-2.45-1.5-3.22l1.33-1.91c.14,.03,.28,.04,.43,.04,1.26,0,2.32-1.07,2.32-2.32,0-1.32-1.07-2.32-2.32-2.32s-2.32,1.07-2.32,2.32c0,.66,.3,1.26,.76,1.69l-1.27,1.83c-.5-.21-1.04-.32-1.62-.32-.31,0-.61,.04-.9,.1l-1.8-2.93c.99-.77,1.63-1.97,1.63-3.32,0-.86-.26-1.66-.71-2.33l.43-.93c.17,.04,.35,.06,.53,.06,1.26,0,2.32-1.07,2.32-2.32,0-1.32-1.07-2.32-2.32-2.32s-2.32,1.07-2.32,2.32c0,.65,.26,1.23,.68,1.64l-.25,.55c-.71-.55-1.6-.88-2.56-.88-1.29,0-2.45,.58-3.22,1.5l-1.44-.76c.05-.18,.07-.36,.07-.55,0-1.32-1.07-2.32-2.32-2.32s-2.32,1.07-2.32,2.32c0,1.32,1,2.32,2.32,2.32,.62,0,1.19-.26,1.61-.67l1.41,.74c-.21,.5-.32,1.04-.32,1.62,.06,2.32,1.88,4.2,4.2,4.2,.21,0,.41-.02,.6-.05l1.88,3.06c-.87,.77-1.42,1.89-1.42,3.14,.02,.88,.31,1.7,.78,2.38l-1.9,2.5c-.52-.23-1.1-.36-1.71-.36-1.32,0-2.5,.61-3.27,1.57l-1.72-1.44c.22-.35,.35-.76,.35-1.19,0-1.32-1.07-2.32-2.32-2.32s-2.32,1-2.32,2.32,1.07,2.32,2.32,2.32c.38,0,.73-.1,1.05-.26l2,1.68c-.19,.48-.29,.99-.29,1.54,.02,.92,.34,1.77,.85,2.46l-.78,.78c-.34-.19-.72-.29-1.13-.29-1.26,0-2.32,1.07-2.32,2.32,0,1.32,1.07,2.32,2.32,2.32s2.32-1.07,2.32-2.32c0-.42-.11-.8-.29-1.13l.77-.77c.7,.52,1.55,.84,2.47,.84,1.13,0,2.16-.45,2.92-1.18l2.72,1.66c-.16,.44-.24,.91-.24,1.4,0,.64,.15,1.24,.4,1.78l-1.72,1.63c-.7-.52-1.57-.84-2.51-.84-2.32,0-4.2,1.88-4.2,4.2,0,.12,0,.25,.02,.37l-2.11,.37c-.41-.68-1.16-1.11-1.98-1.11-1.26,0-2.32,1.07-2.32,2.32s1.07,2.32,2.32,2.32,2.31-1.05,2.32-2.3l2.08-.36c.4,.96,1.14,1.73,2.07,2.18l-.21,1.74c-1.22,.04-2.24,1.09-2.24,2.32,0,1.32,1.07,2.32,2.32,2.32s2.32-1.07,2.32-2.32c0-.88-.47-1.61-1.16-2.01l.2-1.68c.19,.03,.38,.04,.58,.04,2.32,0,4.2-1.88,4.2-4.2,0-.61-.13-1.19-.37-1.71l1.74-1.66c.69,.5,1.54,.79,2.45,.79,.27,0,.53-.03,.78-.07-.21,.35-.34,.77-.34,1.2,0,1.26,1,2.32,2.32,2.32s2.32-1.07,2.32-2.32-.98-2.23-2.16-2.31c.79-.76,1.28-1.83,1.28-3.02,0-.47-.08-.91-.22-1.33l.92-.31c.39,.74,1.18,1.27,2.06,1.27,1.26,0,2.32-1.07,2.32-2.32,0-1.32-1.07-2.32-2.32-2.32Z"></path></svg>