<svg xmlns="http://www.w3.org/2000/svg" id="a" viewBox="0 0 75 75"><path d="M37.5,74.49C17.1,74.49,.51,57.9,.51,37.5S17.1,.51,37.5,.51s36.99,16.59,36.99,36.99-16.6,36.99-36.99,36.99Zm0-72C18.2,2.49,2.49,18.2,2.49,37.5s15.7,35.01,35.01,35.01,35.01-15.7,35.01-35.01S56.8,2.49,37.5,2.49Z"></path><g id="b"><circle id="c" cx="33.26" cy="25.8" r="2.76"></circle><circle id="d" cx="41.69" cy="24.92" r="1.6"></circle><circle id="e" cx="41.4" cy="29.33" r="2.38"></circle><circle id="f" cx="38.06" cy="24.58" r="1.65"></circle><circle id="g" cx="38.3" cy="34.08" r="1.65"></circle><circle id="h" cx="33.84" cy="31.85" r="2.81"></circle><circle id="i" cx="44.26" cy="26.76" r="1.02"></circle><circle id="j" cx="37.91" cy="30.74" r="1.02"></circle><circle id="k" cx="46.06" cy="32.92" r="1.41"></circle><circle id="l" cx="45.43" cy="30.01" r="1.26"></circle><circle id="m" cx="37.28" cy="27.93" r="1.26"></circle><circle id="n" cx="42.32" cy="34.04" r="1.89"></circle><circle id="o" cx="29.96" cy="29.62" r="1.07"></circle><circle id="p" cx="29.43" cy="32.58" r="1.16"></circle><circle id="q" cx="29.04" cy="36.12" r="1.99"></circle><circle id="r" cx="26.86" cy="38.54" r=".73"></circle><circle id="s" cx="28.9" cy="39.81" r="1.16"></circle><circle id="t" cx="26.28" cy="40.87" r="1.21"></circle><circle id="u" cx="28.26" cy="42.28" r=".63"></circle><circle id="v" cx="25.89" cy="44.12" r="1.7"></circle><circle id="w" cx="23.76" cy="46.3" r=".78"></circle><circle id="x" cx="25.99" cy="47.37" r="1.07"></circle><circle id="y" cx="23.17" cy="49.11" r="1.55"></circle><circle id="z" cx="46.4" cy="36.61" r="1.94"></circle><circle id="aa" cx="49.06" cy="38.84" r=".87"></circle><circle id="ab" cx="46.74" cy="40.58" r="1.45"></circle><circle id="ac" cx="49.5" cy="40.82" r=".82"></circle><circle id="ad" cx="48.48" cy="43.44" r="1.45"></circle><circle id="ae" cx="51.05" cy="43.44" r=".68"></circle><circle id="af" cx="50.76" cy="46.06" r="1.36"></circle><circle id="ag" cx="50.37" cy="49.26" r="1.36"></circle><circle id="ah" cx="52.75" cy="47.9" r=".63"></circle><circle id="ai" cx="48.24" cy="46.16" r=".63"></circle><circle id="aj" cx="33.45" cy="36.8" r="1.6"></circle><circle id="ak" cx="35.83" cy="35.59" r=".68"></circle><circle id="al" cx="40.29" cy="37.28" r="1.55"></circle><circle id="am" cx="37.38" cy="36.95" r=".82"></circle><circle id="an" cx="42.76" cy="37.28" r=".68"></circle><circle id="ao" cx="35.92" cy="39.18" r="1.41"></circle><circle id="ap" cx="32.87" cy="40.14" r="1.31"></circle><circle id="aq" cx="39.37" cy="41.11" r="1.99"></circle><circle id="ar" cx="42.66" cy="39.66" r="1.12"></circle><circle id="as" cx="42.66" cy="42.52" r="1.12"></circle><circle id="at" cx="35.49" cy="42.52" r="1.55"></circle><circle id="au" cx="32.63" cy="43.05" r=".92"></circle><circle id="av" cx="38.25" cy="44.56" r="1.26"></circle><circle id="aw" cx="40.82" cy="44.31" r=".87"></circle><circle id="ax" cx="42.95" cy="46.35" r="1.5"></circle><circle id="ay" cx="40.09" cy="46.4" r=".87"></circle><circle id="az" cx="33.99" cy="46.83" r="2.42"></circle><circle id="ba" cx="37.57" cy="47.27" r=".92"></circle><circle id="bb" cx="39.61" cy="49.02" r="1.36"></circle><circle id="bc" cx="42.91" cy="50.03" r="1.6"></circle><circle id="bd" cx="36.75" cy="49.21" r=".68"></circle><circle id="be" cx="37.52" cy="51.88" r="1.7"></circle><circle id="bf" cx="39.08" cy="54.49" r=".87"></circle><circle id="bg" cx="40.63" cy="51.97" r="1.12"></circle><circle id="bh" cx="34.86" cy="50.47" r=".63"></circle><circle id="bi" cx="32.48" cy="50.81" r="1.36"></circle><circle id="bj" cx="43.58" cy="53.48" r="1.5"></circle><circle id="bk" cx="41.06" cy="54.4" r=".78"></circle><circle id="bl" cx="40.29" cy="57.45" r="1.79"></circle><circle id="bm" cx="42.28" cy="55.85" r=".44"></circle><circle id="bn" cx="44.21" cy="56.58" r="1.16"></circle><circle id="bo" cx="43.1" cy="59.2" r="1.16"></circle><circle id="bp" cx="45.33" cy="58.71" r=".63"></circle><circle id="bq" cx="45.09" cy="61.57" r="1.5"></circle><circle id="br" cx="40.82" cy="60.89" r="1.31"></circle><circle id="bs" cx="42.81" cy="61.72" r=".53"></circle><circle id="bt" cx="41.98" cy="64.34" r="1.75"></circle><circle id="bu" cx="45.23" cy="64.53" r="1.02"></circle><circle id="bv" cx="44.12" cy="68.6" r="2.62"></circle><circle id="bw" cx="47.12" cy="71.12" r=".78"></circle><circle id="bx" cx="42.28" cy="72.14" r=".82"></circle><path id="by" d="M44.84,71.56c.83,0,1.5,.67,1.5,1.5-.63,.07-.82,.24-1.65,.24s-1.36,.59-1.36-.24,.67-1.5,1.5-1.5Z"></path><circle id="bz" cx="46.83" cy="66.08" r=".58"></circle><circle id="ca" cx="34.18" cy="53.91" r="1.65"></circle><circle id="cb" cx="35.54" cy="56.87" r="1.16"></circle><circle id="cc" cx="31.17" cy="53.62" r=".82"></circle><circle id="cd" cx="31.8" cy="57.31" r="1.99"></circle><circle id="ce" cx="34.76" cy="60.02" r="1.5"></circle><circle id="cf" cx="31.08" cy="61.67" r="1.99"></circle><circle id="cg" cx="34.37" cy="63.22" r="1.26"></circle><circle id="ch" cx="31.08" cy="66.47" r="2.33"></circle><circle id="ci" cx="34.47" cy="66.03" r=".68"></circle><circle id="cj" cx="33.55" cy="69.52" r="1.12"></circle><circle id="ck" cx="29.82" cy="70.73" r="1.55"></circle><circle id="cl" cx="32.39" cy="72.29" r="1.02"></circle><circle id="cm" cx="35.63" cy="18.47" r="2.38"></circle><circle id="cn" cx="39.12" cy="21.38" r="1.21"></circle><circle id="co" cx="40.34" cy="17.6" r="1.5"></circle><circle id="cp" cx="41.11" cy="20.07" r=".53"></circle><circle id="cq" cx="36.75" cy="22.06" r=".68"></circle><circle id="cr" cx="38.54" cy="13.87" r="1.99"></circle><circle id="cs" cx="42.37" cy="14.69" r="1.41"></circle><circle id="ct" cx="42.66" cy="17.21" r=".58"></circle><circle id="cu" cx="35.25" cy="14.69" r=".87"></circle><circle id="cv" cx="41.31" cy="11.78" r="1.07"></circle><circle id="cw" cx="34.95" cy="11.78" r="1.5"></circle><circle id="cx" cx="37.96" cy="10.38" r="1.21"></circle><circle id="cy" cx="32.68" cy="14.31" r="1.31"></circle><circle id="cz" cx="32.53" cy="16.68" r=".73"></circle></g></svg>