<svg xmlns="http://www.w3.org/2000/svg" xmlns:xlink="http://www.w3.org/1999/xlink" id="a" x="0px" y="0px" viewBox="0 0 75 75" style="enable-background:new 0 0 75 75;" xml:space="preserve"><path d="M37.5,74.5c-20.4,0-37-16.6-37-37s16.6-37,37-37s37,16.6,37,37S57.9,74.5,37.5,74.5z M37.5,2.5c-19.3,0-35,15.7-35,35  s15.7,35,35,35s35-15.7,35-35S56.8,2.5,37.5,2.5z"></path><g>	<path d="M35,61c-1.8,0-3.7-0.2-5.4-1c-3.5-1.7-7.9-4.1-8.9-6.2c-0.2-0.5-1-1.2-1.7-2c-1.5-1.6-3.4-3.5-4-5.8   c-0.7-2.7-0.7-2.8-0.8-6.9c-0.1-1.5-0.1-3.3-0.1-5.4c0-4,1-7,3-8.9c1.9-1.9,6.3-4.9,9.2-7c1-0.7,2-1.4,2.2-1.6   c1.1-1.1,4-2.1,7.5-2.1s13.8,2.9,15.6,3.8c2.2,1.1,5.8,6.5,6.7,9.6c0.2,0.9,0.6,1.9,0.9,2.9c0.8,2.5,1.7,5.2,1.7,7.1   c0,2.8-1.3,6-2.1,8.2c-0.1,0.2-0.2,0.5-0.3,0.8c-1,2.7-2.7,7.1-5.2,9.4c-2.7,2.4-7.4,4.8-11.9,4.8c-1,0-2.2,0.1-3.2,0.2   C37.1,60.9,36,61,35,61L35,61z M36,16.5c-3.5,0-5.4,1.1-5.9,1.5c-0.3,0.3-1.1,0.8-2.4,1.7c-2.7,1.9-7.1,5-8.9,6.7   c-1.5,1.5-2.2,3.9-2.2,7.1c0,2,0,3.8,0.1,5.3v0c0,2.6,0.3,4.7,0.7,6.3c0.5,1.7,2.1,3.4,3.4,4.7c0.9,1,1.7,1.8,2.1,2.6   c0.4,0.8,2.7,2.7,7.8,5.1c2.2,1,4.7,0.8,7.4,0.7c1.1-0.1,2.2-0.2,3.4-0.2c3.8,0,8-2.2,10.2-4.2c2.1-1.9,3.7-6.2,4.6-8.5   c0.1-0.3,0.2-0.6,0.3-0.9c0.7-1.8,1.9-4.9,1.9-7.3c0-1.6-0.8-4.1-1.6-6.4c-0.4-1.1-0.7-2.1-1-3c-0.8-2.7-4.1-7.4-5.4-8   C48.9,19.2,39.2,16.5,36,16.5L36,16.5z"></path></g><g>	<path d="M29.8,38v-1.8c0-0.5,0-1.8,0.9-2.7s3.6-2.6,3.9-2.9s1.1-0.6,2.3-0.6s4.6,0.9,5.2,1.2c0.6,0.3,1.8,2,2.1,3   c0.3,1,0.9,2.5,0.9,3.3s-0.4,1.8-0.7,2.6c-0.3,0.7-0.9,2.5-1.8,3.3c-0.9,0.8-2.5,1.5-3.9,1.5s-2.8,0.3-3.9-0.2s-2.5-1.4-3-1.9   c-0.4-0.5-1.3-1-1.8-2.6C29.9,39.7,29.8,38.9,29.8,38"></path></g></svg>