<svg xmlns="http://www.w3.org/2000/svg" id="Layer_1" data-name="Layer 1" viewBox="0 0 75 75"><g><path d="m37.81,40.87h-.63c-4.64,0-8.41-3.77-8.41-8.41V14.18c0-4.64,3.77-8.41,8.41-8.41h.63c4.64,0,8.41,3.77,8.41,8.41v18.27c0,4.64-3.77,8.41-8.41,8.41Zm-.63-33.21c-3.6,0-6.53,2.93-6.53,6.53v18.27c0,3.6,2.93,6.53,6.53,6.53h.63c3.6,0,6.53-2.93,6.53-6.53V14.18c0-3.6-2.93-6.53-6.53-6.53h-.63Z"></path><rect x="29.71" y="22.35" width="15.57" height="1.88"></rect><circle cx="31.28" cy="39.49" r="2.45"></circle><circle cx="37.5" cy="42.06" r="2.45"></circle><circle cx="43.72" cy="39.49" r="2.45"></circle><circle cx="31.28" cy="46.02" r="2.13"></circle><circle cx="37.5" cy="48.65" r="2.13"></circle><circle cx="43.72" cy="46.02" r="2.13"></circle><circle cx="31.28" cy="52.29" r="1.82"></circle><circle cx="37.5" cy="54.87" r="1.82"></circle><circle cx="43.72" cy="52.29" r="1.82"></circle><circle cx="31.28" cy="58.2" r="1.57"></circle><circle cx="37.5" cy="60.83" r="1.57"></circle><circle cx="43.72" cy="58.2" r="1.57"></circle><circle cx="31.28" cy="63.85" r="1.26"></circle><circle cx="37.5" cy="66.48" r="1.26"></circle><circle cx="43.72" cy="63.85" r="1.26"></circle><circle cx="31.28" cy="69.18" r=".94"></circle><circle cx="37.5" cy="71.76" r=".94"></circle><circle cx="43.72" cy="69.18" r=".94"></circle></g><path d="m37.5,74.49C17.1,74.49.51,57.9.51,37.5S17.1.51,37.5.51s36.99,16.59,36.99,36.99-16.6,36.99-36.99,36.99Zm0-72C18.2,2.49,2.49,18.2,2.49,37.5s15.7,35.01,35.01,35.01,35.01-15.7,35.01-35.01S56.8,2.49,37.5,2.49Z"></path></svg>