<svg xmlns="http://www.w3.org/2000/svg" id="Layer_1" data-name="Layer 1" viewBox="0 0 75 75"><path d="m37.5,74.49C17.1,74.49.51,57.9.51,37.5S17.1.51,37.5.51s36.99,16.59,36.99,36.99-16.6,36.99-36.99,36.99Zm0-72C18.2,2.49,2.49,18.2,2.49,37.5s15.7,35.01,35.01,35.01,35.01-15.7,35.01-35.01S56.8,2.49,37.5,2.49Z"></path><g><circle cx="49.65" cy="55.86" r="1.16"></circle><circle cx="32.78" cy="47.55" r="1.16"></circle><circle cx="32.46" cy="55.54" r=".92"></circle><circle cx="27.11" cy="55.02" r=".84"></circle><path d="m25.91,54.26c-.33,0-.6-.27-.6-.6s.27-.6.6-.6.6.27.6.6-.27.6-.6.6Z"></path><circle cx="27.07" cy="51.23" r="1.8"></circle><path d="m49.05,50.23c.31,0,.56.25.56.56s-.25.56-.56.56-.56-.25-.56-.56.25-.56.56-.56Z"></path><path d="m48.85,22.81c0-.31.25-.56.56-.56s.56.25.56.56-.25.56-.56.56-.56-.25-.56-.56Z"></path><circle cx="47.57" cy="22.45" r=".92"></circle><path d="m48.81,24.05c0,.31-.25.56-.56.56s-.56-.25-.56-.56.25-.56.56-.56.56.25.56.56Z"></path><circle cx="47.33" cy="26.09" r="1.48"></circle><path d="m48.49,47.79c0,.31-.25.56-.56.56s-.56-.25-.56-.56.25-.56.56-.56.56.25.56.56Z"></path><circle cx="45.01" cy="28.61" r="1.8" transform="translate(9.56 68.46) rotate(-80.78)"></circle><path d="m43.97,33.88c-.31,0-.56-.25-.56-.56s.25-.56.56-.56.56.25.56.56-.25.56-.56.56Z"></path><path d="m44.33,41.4c0,.31-.25.56-.56.56s-.56-.25-.56-.56.25-.56.56-.56.56.25.56.56Z"></path><circle cx="45.01" cy="31.29" r=".56"></circle><path d="m42.66,27.69c-.31,0-.56-.25-.56-.56s.25-.56.56-.56.56.25.56.56-.25.56-.56.56Z"></path><path d="m42.38,28.65c.31,0,.56.25.56.56s-.25.56-.56.56-.56-.25-.56-.56.25-.56.56-.56Z"></path><circle cx="42.81" cy="31.41" r="1.48"></circle><circle cx="42.26" cy="33.88" r=".92" transform="translate(2.04 70.17) rotate(-80.78)"></circle><circle cx="40.5" cy="40.32" r=".92"></circle><circle cx="39.54" cy="38.2" r=".92"></circle><path d="m41.34,39.36c-.31,0-.56-.25-.56-.56s.25-.56.56-.56.56.25.56.56-.25.56-.56.56Z"></path><path d="m42.26,39.4c.31,0,.56.25.56.56s-.25.56-.56.56-.56-.25-.56-.56.25-.56.56-.56Z"></path><circle cx="42.18" cy="41.68" r=".92"></circle><path d="m40.78,33.32c-.31,0-.56-.25-.56-.56s.25-.56.56-.56.56.25.56.56-.25.56-.56.56Z"></path><path d="m40.5,30.05c-.31,0-.56-.25-.56-.56s.25-.56.56-.56.56.25.56.56-.25.56-.56.56Z"></path><path d="m40.58,20.02c-.31,0-.56-.25-.56-.56s.25-.56.56-.56.56.25.56.56-.25.56-.56.56Z"></path><circle cx="39.82" cy="27.77" r=".92"></circle><circle cx="39.54" cy="35.12" r="1.8"></circle><circle cx="37.74" cy="29.13" r=".92"></circle><path d="m37.54,27.29c0-.31.25-.56.56-.56s.56.25.56.56-.25.56-.56.56-.56-.25-.56-.56Z"></path><path d="m37.46,35.4c0,.31-.25.56-.56.56s-.56-.25-.56-.56.25-.56.56-.56.56.25.56.56Z"></path><circle cx="36.18" cy="27.73" r=".92"></circle><path d="m35.42,28.81c.31,0,.56.25.56.56s-.25.56-.56.56-.56-.25-.56-.56.25-.56.56-.56Z"></path><circle cx="32.98" cy="33.52" r="1.48"></circle><circle cx="34.26" cy="38.72" r=".92"></circle><circle cx="32.78" cy="40.32" r=".92" transform="translate(-12.26 66.22) rotate(-80.78)"></circle><path d="m33.9,41.24c.31,0,.56.25.56.56s-.25.56-.56.56-.56-.25-.56-.56.25-.56.56-.56Z"></path><path d="m34.06,40.52c0-.31.25-.56.56-.56s.56.25.56.56-.25.56-.56.56-.56-.25-.56-.56Z"></path><circle cx="35.58" cy="45.71" r=".56"></circle><circle cx="34.86" cy="35.64" r=".92"></circle><path d="m35.42,34.32c-.31,0-.56-.25-.56-.56s.25-.56.56-.56.56.25.56.56-.25.56-.56.56Z"></path><circle cx="33.74" cy="27.89" r="1.16"></circle><circle cx="31.87" cy="30.93" r=".92"></circle><path d="m30.91,31.89c.31,0,.56.25.56.56s-.25.56-.56.56-.56-.25-.56-.56.25-.56.56-.56Z"></path><path d="m29.87,31.29c-.31,0-.56-.25-.56-.56s.25-.56.56-.56.56.25.56.56-.25.56-.56.56Z"></path><circle cx="30.47" cy="28.21" r="1.8"></circle><path d="m29.31,26.25c-.31,0-.56-.25-.56-.56s.25-.56.56-.56.56.25.56.56-.25.56-.56.56Z"></path><circle cx="27.43" cy="23.97" r="1.48"></circle><circle cx="27.79" cy="28.37" r=".56"></circle><path d="m27.67,47.91c0,.31-.25.56-.56.56s-.56-.25-.56-.56.25-.56.56-.56.56.25.56.56Z"></path><circle cx="27.67" cy="26.61" r=".92"></circle><path d="m27.99,22.29c-.31,0-.56-.25-.56-.56s.25-.56.56-.56.56.25.56.56-.25.56-.56.56Z"></path><circle cx="27.67" cy="20.22" r=".56"></circle><circle cx="26.31" cy="21.5" r=".92" transform="translate(.88 44.02) rotate(-80.78)"></circle><circle cx="28.83" cy="48.75" r=".92"></circle><circle cx="29.15" cy="45.87" r="1.48"></circle><circle cx="31.55" cy="43.03" r="1.8"></circle><path d="m33.5,45.87c0-.31.25-.56.56-.56s.56.25.56.56-.25.56-.56.56-.56-.25-.56-.56Z"></path><circle cx="35.3" cy="47.35" r=".92"></circle><circle cx="36.78" cy="37.68" r="1.48"></circle><circle cx="37.3" cy="46.31" r=".92"></circle><path d="m38.14,47.35c.31,0,.56.25.56.56s-.25.56-.56.56-.56-.25-.56-.56.25-.56.56-.56Z"></path><circle cx="39.74" cy="46.39" r="1.16"></circle><path d="m41.42,47.35c.31,0,.56.25.56.56s-.25.56-.56.56-.56-.25-.56-.56.25-.56.56-.56Z"></path><circle cx="42.34" cy="46.07" r=".92"></circle><path d="m43.09,47.23c.31,0,.56.25.56.56s-.25.56-.56.56-.56-.25-.56-.56.25-.56.56-.56Z"></path><circle cx="44.25" cy="43.43" r="1.28" transform="translate(-5.71 80.16) rotate(-80.78)"></circle><circle cx="45.57" cy="46.51" r="1.8"></circle><circle cx="47.33" cy="49.87" r="1.16"></circle><circle cx="48.09" cy="52.39" r=".92"></circle><circle cx="48.33" cy="54.26" r=".56"></circle><circle cx="48.29" cy="57.26" r=".56"></circle><path d="m49.65,53.86c-.31,0-.56-.25-.56-.56s.25-.56.56-.56.56.25.56.56-.25.56-.56.56Z"></path><circle cx="49.21" cy="21.02" r=".92"></circle><circle cx="47.93" cy="18.26" r="1.8"></circle><circle cx="47.37" cy="15.22" r=".92" transform="translate(24.76 59.54) rotate(-80.78)"></circle><path d="m48.93,15.42c.31,0,.56.25.56.56s-.25.56-.56.56-.56-.25-.56-.56.25-.56.56-.56Z"></path><path d="m47.93,12.98c.31,0,.56.25.56.56s-.25.56-.56.56-.56-.25-.56-.56.25-.56.56-.56Z"></path><path d="m47.01,11.03c.22,0,.4.18.4.4s-.18.4-.4.4-.4-.18-.4-.4.18-.4.4-.4Z"></path><path d="m46.45,12.98c.31,0,.56.25.56.56s-.25.56-.56.56-.56-.25-.56-.56.25-.56.56-.56Z"></path><path d="m45.45,17.54c.22,0,.4.18.4.4s-.18.4-.4.4-.4-.18-.4-.4.18-.4.4-.4Z"></path><circle cx="45.05" cy="19.3" r=".76"></circle><path d="m44.29,16.82c.31,0,.56.25.56.56s-.25.56-.56.56-.56-.25-.56-.56.25-.56.56-.56Z"></path><circle cx="42.81" cy="18.7" r="1.16"></circle><path d="m42.1,28.17c0,.31-.25.56-.56.56s-.56-.25-.56-.56.25-.56.56-.56.56.25.56.56Z"></path><circle cx="40.42" cy="17.78" r=".92"></circle><circle cx="38.62" cy="19.1" r=".92" transform="translate(13.58 54.16) rotate(-80.78)"></circle><path d="m38.46,16.82c.31,0,.56.25.56.56s-.25.56-.56.56-.56-.25-.56-.56.25-.56.56-.56Z"></path><circle cx="37.18" cy="17.94" r=".56"></circle><path d="m37.18,19.3c0,.31-.25.56-.56.56s-.56-.25-.56-.56.25-.56.56-.56.56.25.56.56Z"></path><circle cx="35.42" cy="17.94" r=".92"></circle><path d="m33.54,16.94c.31,0,.56.25.56.56s-.25.56-.56.56-.56-.25-.56-.56.25-.56.56-.56Z"></path><circle cx="33.54" cy="19.3" r=".92"></circle><circle cx="31.63" cy="17.82" r="1.16"></circle><path d="m30.63,19.1c.31,0,.56.25.56.56s-.25.56-.56.56-.56-.25-.56-.56.25-.56.56-.56Z"></path><circle cx="28.59" cy="18.26" r="1.48"></circle><path d="m27.91,15.22c0-.31.25-.56.56-.56s.56.25.56.56-.25.56-.56.56-.56-.25-.56-.56Z"></path><path d="m28.19,11.11c.18,0,.32.14.32.32s-.14.32-.32.32-.32-.14-.32-.32.14-.32.32-.32Z"></path><circle cx="28.47" cy="13.34" r=".92"></circle><path d="m26.87,13.74c.31,0,.56.25.56.56s-.25.56-.56.56-.56-.25-.56-.56.25-.56.56-.56Z"></path><circle cx="26.87" cy="15.98" r=".92"></circle><path d="m26.15,17.02c.31,0,.56.25.56.56s-.25.56-.56.56-.56-.25-.56-.56.25-.56.56-.56Z"></path><circle cx="26.15" cy="19.3" r=".92"></circle><path d="m25.07,54.18c.33,0,.6.27.6.6s-.27.6-.6.6-.6-.27-.6-.6.27-.6.6-.6Z"></path><circle cx="25.55" cy="56.98" r="1.48"></circle><circle cx="25.27" cy="60.38" r=".92"></circle><path d="m25.87,62.86c-.33,0-.6-.27-.6-.6s.27-.6.6-.6.6.27.6.6-.27.6-.6.6Z"></path><path d="m27.19,63.97c-.26,0-.48-.21-.48-.48s.21-.48.48-.48.48.21.48.48-.21.48-.48.48Z"></path><circle cx="27.19" cy="61.06" r=".68"></circle><circle cx="27.11" cy="59.14" r=".92"></circle><circle cx="29.55" cy="56.54" r="1.6"></circle><path d="m30.59,48.35c-.31,0-.56-.25-.56-.56s.25-.56.56-.56.56.25.56.56-.25.56-.56.56Z"></path><circle cx="31.55" cy="45.71" r=".56"></circle><path d="m31.99,57.98c-.33,0-.6-.27-.6-.6s.27-.6.6-.6.6.27.6.6-.27.6-.6.6Z"></path><path d="m33.58,57.82c-.33,0-.6-.27-.6-.6s.27-.6.6-.6.6.27.6.6-.27.6-.6.6Z"></path><circle cx="34.86" cy="55.86" r=".92"></circle><path d="m36.14,57.86c-.33,0-.6-.27-.6-.6s.27-.6.6-.6.6.27.6.6-.27.6-.6.6Z"></path><circle cx="38.14" cy="56.26" r="1.32"></circle><path d="m40.06,57.82c-.29,0-.52-.23-.52-.52s.23-.52.52-.52.52.23.52.52-.23.52-.52.52Z"></path><path d="m40.3,55.98c-.33,0-.6-.27-.6-.6s.27-.6.6-.6.6.27.6.6-.27.6-.6.6Z"></path><circle cx="41.66" cy="56.46" r=".8"></circle><path d="m42.34,55.38c0-.29.23-.52.52-.52s.52.23.52.52-.23.52-.52.52-.52-.23-.52-.52Z"></path><circle cx="43.57" cy="57.06" r=".92"></circle><circle cx="45.25" cy="55.66" r=".88"></circle><path d="m46.37,58.02c-.33,0-.6-.27-.6-.6s.27-.6.6-.6.6.27.6.6-.27.6-.6.6Z"></path><circle cx="47.41" cy="55.82" r=".88"></circle><circle cx="48.33" cy="59.46" r=".88" transform="translate(-18.1 97.64) rotate(-80.78)"></circle><path d="m48.65,63.14c-.24,0-.44-.2-.44-.44s.2-.44.44-.44.44.2.44.44-.2.44-.44.44Z"></path><path d="m48.85,61.5c-.24,0-.44-.2-.44-.44s.2-.44.44-.44.44.2.44.44-.2.44-.44.44Z"></path><path d="m50.05,60.74c-.31,0-.56-.25-.56-.56s.25-.56.56-.56.56.25.56.56-.25.56-.56.56Z"></path><circle cx="50.05" cy="58.22" r=".88"></circle></g></svg>