<svg xmlns="http://www.w3.org/2000/svg" id="Layer_1" data-name="Layer 1" viewBox="0 0 75 75"><g><path d="m35.91,73.14h2.88v-.76h-1.02v-4.31h-.85c0,.51-.51.76-1.02.76v.59h1.02v2.96h-1.02v.76Z"></path><path d="m42.94,65.78h2.88v-.76h-1.02v-4.31h-.85c0,.51-.51.76-1.02.76v.59h1.02v2.96h-1.02v.76Zm-7.02,0h2.88v-.76h-1.02v-4.31h-.85c0,.51-.51.76-1.02.76v.59h1.02v2.96h-1.02v.76Z"></path><path d="m28.98,51.06h2.88v-.76h-1.02v-4.31h-.85c0,.51-.51.76-1.02.76v.59h1.02v2.96h-1.02v.76Zm-13.96,0h2.88v-.76h-1.02v-4.31h-.85c0,.51-.51.76-1.02.76v.59h1.02v2.96h-1.02v.76Z"></path><path d="m56.81,43.7h2.88v-.76h-1.02v-4.31h-.85c0,.51-.51.76-1.02.76v.59h1.02v2.96h-1.02v.76Zm-6.94,0h2.88v-.76h-1.02v-4.31h-.85c0,.51-.51.76-1.02.76v.59h1.02v2.96h-1.02v.76Zm-34.86,0h2.88v-.76h-1.02v-4.31h-.85c0,.51-.51.76-1.02.76v.59h1.02v2.96h-1.02v.76Z"></path><path d="m42.85,36.34h2.88v-.76h-1.02v-4.31h-.85c0,.51-.51.76-1.02.76v.59h1.02v2.96h-1.02v.76Zm-13.87,0h2.88v-.76h-1.02v-4.31h-.85c0,.51-.51.76-1.02.76v.59h1.02v2.96h-1.02v.76Zm-13.96,0h2.88v-.76h-1.02v-4.31h-.85c0,.51-.51.76-1.02.76v.59h1.02v2.96h-1.02v.76Z"></path><path d="m35.91,21.61h2.88v-.76h-1.02v-4.31h-.85c0,.51-.51.76-1.02.76v.59h1.02v2.96h-1.02v.76Z"></path><path d="m42.94,14.25h2.88v-.76h-1.02v-4.31h-.85c0,.51-.51.76-1.02.76v.59h1.02v2.96h-1.02v.76Z"></path><path d="m37.35,8.92c-.93,0-1.44.59-1.44,1.52v2.28c0,.85.51,1.52,1.44,1.52s1.44-.59,1.44-1.52v-2.28c0-.93-.51-1.52-1.44-1.52Zm-.68,1.35c0-.34.25-.59.59-.59h.08c.34,0,.59.25.59.59v1.44h-1.27v-1.44Z"></path><path d="m44.37,16.54c-.93,0-1.44.59-1.44,1.52v2.28c0,.85.51,1.52,1.44,1.52s1.44-.59,1.44-1.52v-2.28c0-.93-.51-1.52-1.44-1.52Zm-.68,1.35c0-.34.25-.59.59-.59h.08c.34,0,.59.25.59.59v1.44h-1.27v-1.44Z"></path><path d="m44.37,23.9c-.93,0-1.44.59-1.44,1.52v2.28c0,.85.51,1.52,1.44,1.52s1.44-.59,1.44-1.52v-2.28c0-.93-.51-1.52-1.44-1.52Zm-.68,1.35c0-.34.25-.59.59-.59h.08c.34,0,.59.25.59.59v1.44h-1.27v-1.44Z"></path><path d="m37.35,23.9c-.93,0-1.44.59-1.44,1.52v2.28c0,.85.51,1.52,1.44,1.52s1.44-.59,1.44-1.52v-2.28c0-.93-.51-1.52-1.44-1.52Zm-.68,1.35c0-.34.25-.59.59-.59h.08c.34,0,.59.25.59.59v1.44h-1.27v-1.44Z"></path><path d="m44.37,38.54c-.93,0-1.44.59-1.44,1.52v2.28c0,.85.51,1.52,1.44,1.52s1.44-.59,1.44-1.52v-2.28c0-.93-.51-1.52-1.44-1.52Zm-.68,1.35c0-.34.25-.59.59-.59h.08c.34,0,.59.25.59.59v1.44h-1.27v-1.44Z"></path><path d="m37.35,38.54c-.93,0-1.44.59-1.44,1.52v2.28c0,.85.51,1.52,1.44,1.52s1.44-.59,1.44-1.52v-2.28c0-.93-.51-1.52-1.44-1.52Zm-.68,1.35c0-.34.25-.59.59-.59h.08c.34,0,.59.25.59.59v1.44h-1.27v-1.44Z"></path><path d="m30.25,38.54c-.93,0-1.44.59-1.44,1.52v2.28c0,.85.51,1.52,1.44,1.52s1.44-.59,1.44-1.52v-2.28c0-.93-.51-1.52-1.44-1.52Zm-.68,1.35c0-.34.25-.59.59-.59h.08c.34,0,.59.25.59.59v1.44h-1.27v-1.44Z"></path><path d="m23.22,38.54c-.93,0-1.44.59-1.44,1.52v2.28c0,.85.51,1.52,1.44,1.52s1.44-.59,1.44-1.52v-2.28c0-.93-.51-1.52-1.44-1.52Zm-.68,1.35c0-.34.25-.59.59-.59h.08c.34,0,.59.25.59.59v1.44h-1.27v-1.44Z"></path><path d="m44.37,45.9c-.93,0-1.44.59-1.44,1.52v2.28c0,.85.51,1.52,1.44,1.52s1.44-.59,1.44-1.52v-2.28c0-.93-.51-1.52-1.44-1.52Zm-.68,1.35c0-.34.25-.59.59-.59h.08c.34,0,.59.25.59.59v1.44h-1.27v-1.44Z"></path><path d="m37.35,45.9c-.93,0-1.44.59-1.44,1.52v2.28c0,.85.51,1.52,1.44,1.52s1.44-.59,1.44-1.52v-2.28c0-.93-.51-1.52-1.44-1.52Zm-.68,1.35c0-.34.25-.59.59-.59h.08c.34,0,.59.25.59.59v1.44h-1.27v-1.44Z"></path><path d="m58.33,45.9c-.93,0-1.44.59-1.44,1.52v2.28c0,.85.51,1.52,1.44,1.52s1.44-.59,1.44-1.52v-2.28c0-.93-.51-1.52-1.44-1.52Zm-.68,1.35c0-.34.25-.59.59-.59h.08c.34,0,.59.25.59.59v1.44h-1.27v-1.44Z"></path><path d="m51.31,45.9c-.93,0-1.44.59-1.44,1.52v2.28c0,.85.51,1.52,1.44,1.52s1.44-.59,1.44-1.52v-2.28c0-.93-.51-1.52-1.44-1.52Zm-.68,1.35c0-.34.25-.59.59-.59h.08c.34,0,.59.25.59.59v1.44h-1.27v-1.44Z"></path><path d="m44.37,53.34c-.93,0-1.44.59-1.44,1.52v2.28c0,.85.51,1.52,1.44,1.52s1.44-.59,1.44-1.52v-2.28c0-.93-.51-1.52-1.44-1.52Zm-.68,1.27c0-.34.25-.59.59-.59h.08c.34,0,.59.25.59.59v1.44h-1.27v-1.44Z"></path><path d="m37.35,53.34c-.93,0-1.44.59-1.44,1.52v2.28c0,.85.51,1.52,1.44,1.52s1.44-.59,1.44-1.52v-2.28c0-.93-.51-1.52-1.44-1.52Zm-.68,1.27c0-.34.25-.59.59-.59h.08c.34,0,.59.25.59.59v1.44h-1.27v-1.44Z"></path><path d="m51.31,53.34c-.93,0-1.44.59-1.44,1.52v2.28c0,.85.51,1.52,1.44,1.52s1.44-.59,1.44-1.52v-2.28c0-.93-.51-1.52-1.44-1.52Zm-.68,1.27c0-.34.25-.59.59-.59h.08c.34,0,.59.25.59.59v1.44h-1.27v-1.44Z"></path><path d="m44.37,67.98c-.93,0-1.44.59-1.44,1.52v2.28c0,.85.51,1.52,1.44,1.52s1.44-.59,1.44-1.52v-2.28c0-.93-.51-1.52-1.44-1.52Zm-.68,1.35c0-.34.25-.59.59-.59h.08c.34,0,.59.25.59.59v1.44h-1.27v-1.44Z"></path><path d="m51.31,67.98c-.93,0-1.44.59-1.44,1.52v2.28c0,.85.47-.27,1.4-.27s1.61-.22,1.61-1.15l-.13-.87c0-.93-.51-1.52-1.44-1.52Zm-.68,1.35c0-.34.25-.59.59-.59h.08c.34,0,.59.25.59.59v1.44h-1.27v-1.44Z"></path><path d="m51.31,60.53c-.93,0-1.44.59-1.44,1.52v2.28c0,.85.51,1.52,1.44,1.52s1.44-.59,1.44-1.52v-2.28c0-.93-.51-1.52-1.44-1.52Zm-.68,1.35c0-.34.25-.59.59-.59h.08c.34,0,.59.25.59.59v1.44h-1.27v-1.44Z"></path><path d="m23.22,45.9c-.93,0-1.44.59-1.44,1.52v2.28c0,.85.51,1.52,1.44,1.52s1.44-.59,1.44-1.52v-2.28c0-.93-.51-1.52-1.44-1.52Zm-.68,1.35c0-.34.25-.59.59-.59h.08c.34,0,.59.25.59.59v1.44h-1.27v-1.44Z"></path><path d="m51.31,23.9c-.93,0-1.44.59-1.44,1.52v2.28c0,.85.51,1.52,1.44,1.52s1.44-.59,1.44-1.52v-2.28c0-.93-.51-1.52-1.44-1.52Zm-.68,1.35c0-.34.25-.59.59-.59h.08c.34,0,.59.25.59.59v1.44h-1.27v-1.44Z"></path><path d="m37.35,31.17c-.93,0-1.44.59-1.44,1.52v2.28c0,.85.51,1.52,1.44,1.52s1.44-.59,1.44-1.52v-2.28c0-.93-.51-1.52-1.44-1.52Zm-.68,1.35c0-.34.25-.59.59-.59h.08c.34,0,.59.25.59.59v1.44h-1.27v-1.44Z"></path><path d="m23.22,31.17c-.93,0-1.44.59-1.44,1.52v2.28c0,.85.51,1.52,1.44,1.52s1.44-.59,1.44-1.52v-2.28c0-.93-.51-1.52-1.44-1.52Zm-.68,1.35c0-.34.25-.59.59-.59h.08c.34,0,.59.25.59.59v1.44h-1.27v-1.44Z"></path><path d="m51.31,31.17c-.93,0-1.44.59-1.44,1.52v2.28c0,.85.51,1.52,1.44,1.52s1.44-.59,1.44-1.52v-2.28c0-.93-.51-1.52-1.44-1.52Zm-.68,1.35c0-.34.25-.59.59-.59h.08c.34,0,.59.25.59.59v1.44h-1.27v-1.44Z"></path><path d="m58.33,31.17c-.93,0-1.44.59-1.44,1.52v2.28c0,.85.51,1.52,1.44,1.52s1.44-.59,1.44-1.52v-2.28c0-.93-.51-1.52-1.44-1.52Zm-.68,1.35c0-.34.25-.59.59-.59h.08c.34,0,.59.25.59.59v1.44h-1.27v-1.44Z"></path><path d="m51.31,16.71c-.93,0-1.44.59-1.44,1.52v2.28c0,.85.51,1.52,1.44,1.52s1.44-.59,1.44-1.52v-2.28c0-.93-.51-1.52-1.44-1.52Zm-.68,1.35c0-.34.25-.59.59-.59h.08c.34,0,.59.25.59.59v1.44h-1.27v-1.44Z"></path><path d="m51.31,9.09c-.93,0-1.44.59-1.44,1.52v2.28c0,.85.51,1.52,1.44,1.52s1.44-.59,1.44-1.52v-2.28c0-.93-.51-1.52-1.44-1.52Zm-.68,1.35c0-.34.25-.59.59-.59h.08c.34,0,.59.25.59.59v1.44h-1.27v-1.44Z"></path></g><path d="m37.5,74.49C17.1,74.49.51,57.9.51,37.5S17.1.51,37.5.51s36.99,16.59,36.99,36.99-16.6,36.99-36.99,36.99Zm0-72C18.2,2.49,2.49,18.2,2.49,37.5s15.7,35.01,35.01,35.01,35.01-15.7,35.01-35.01S56.8,2.49,37.5,2.49Z"></path></svg>