<svg xmlns="http://www.w3.org/2000/svg" id="Layer_1" data-name="Layer 1" viewBox="0 0 75 75"><g><path d="m38.8,60.02c-2.87.26-5.73.34-8.59-.08-5.26-.78-9.04-3.59-11.5-8.26-.97-1.83-1.7-3.78-2.61-5.64-1.33-2.73-2.82-5.37-4.82-7.68-.29-.33-.6-.63-.94-.99,1.16-.16,2.26-.24,3.37-.29,4.21-.19,8.37.06,12.43,1.25,4.81,1.4,8.88,3.93,11.99,7.89,2.4,3.05,3.92,6.52,4.74,10.3.06.29.13.59.22,1-.48-.39-.86-.7-1.24-1.01-3.93-3.2-7.99-6.2-12.41-8.69-2-1.12-4.04-2.15-6.28-2.73-.16-.04-.36-.22-.54-.02-.03.07.07.11.11.12,2.7.97,5.03,2.56,7.3,4.26.19.14.37.29.54.45,4.51,4.08,6.89,6.52,10.24,9.95"></path><path d="m23.9,32.67c-.73-.57-1.21-1.2-1.24-2.1,0-.17-.09-.34-.18-.49-.19-.33-.3-.66-.27-1.04.01-.13.01-.28-.17-.4-.23.77-.33,1.52-.42,2.28-.18,1.67-.14,3.33.16,4.98.07.37-.06.38-.36.36-.39-.04-.57-.15-.64-.59-1.38-9.08,4.07-17.87,12.86-20.69,10.56-3.39,21.79,3.01,24.14,13.82,1.06,4.86.29,9.46-2.25,13.76-.26.43-.54.74-1.07.76-.19,0-.38.08-.67.15.56-.77,1.02-1.49,1.42-2.25.4-.76.77-1.53,1.04-2.38-.64,0-1.26-.25-1.85.12-.19.12-.38.06-.55-.1-.37-.34-.75-.68-1.12-1.02-.11-.1-.24-.21-.29-.34-.26-.61-.46-1.22-1.09-1.62-.31-.19-.22-.65-.14-1,.1-.42.26-.82.36-1.23.07-.28.26-.57,0-.86-.02-.02,0-.1.02-.14.36-.56.54-1.23.97-1.75.24-.29.54-.49.89-.63.18-.08.28-.14.17-.39-.18-.37-.14-.72.27-.98.42-.27.8-.59.72-1.19-.03-.22-.06-.38-.29-.47-.12-.05-.24-.14-.33-.24-.46-.52-.46-.6-.05-1.15.16-.21.45-.45-.03-.65-.08-.03-.08-.15-.04-.24.07-.13.19-.11.3-.09.41.07.82.14,1.22.21.09-.18-.02-.27-.08-.38-1.41-2.71-3.39-4.92-5.91-6.64-.18-.12-.33-.18-.55-.06-.31.17-.62.18-.93-.05-.27-.2-.52-.16-.73.11-.04.05-.08.11-.13.14-.7.46-1.29,1.01-1.33,1.92,0,.03-.05.05-.18.16.01-.97-.63-1.5-1.14-2.13-.36-.45-.21-.81.27-1.15.11-.08.24-.15.33-.25.15-.15.21-.31-.1-.35-.18-.03-.34-.1-.36-.29-.03-.34-.26-.42-.53-.49-1.25-.31-2.52-.53-3.92-.58.29.38.42.76.8.96.24.12.46.27.58.52.2.41.49.7.94.82.08.02.19.04.19.15,0,.1-.08.16-.16.19-.14.06-.28.12-.42.16-.36.11-.62.28-.56.72.04.25-.14.34-.34.38-.72.14-1.41.03-2.08-.23-.19-.08-.22-.19-.06-.34.07-.06.14-.13.09-.23-.06-.12-.17-.08-.27-.08-.15,0-.37.1-.41-.13-.04-.22.19-.18.31-.25.4-.21.6-.62,1.04-.97-.61-.07-1.1-.14-1.54.14-.32.21-.63.42-.96.61-.39.22-.39.34-.06.64.34.3.34.47,0,.66-.12.07-.24.1-.34-.02-.24-.29-.56-.32-.9-.29-.13.01-.26.03-.38.01-.71-.09-1.3.08-1.69.73-.05.08-.14.14-.23.2-.48.36-.48.36-.01.78.21.18.4.39.59.59.12.13.25.29.43.29.51,0,.54.32.55.69.02.5.05.99.29,1.52.25-.39.21-.77.25-1.12.11-.93.26-1.07,1.18-1.08.12,0,.25.04.41-.07-.37-.53-.28-1.08,0-1.62.3-.56.58-.65,1.14-.37.34.17.66.39.92.66.28.28.55.38.9.12.11-.09.26-.16.46-.08-.44.74.06,1.14.57,1.53.13.1.27.19.41.28.5.33.51.34.11.77-.21.23-.2.4.04.6.35.29.44.82.24,1.23-.07.14-.17.19-.31.16-.39-.08-.75-.23-1.03-.53-.21-.21-.22-.44,0-.67.12-.12.24-.28.12-.44-.12-.17-.31-.06-.45.02-.38.22-.77.39-1.19.49-.36.09-.34.27-.14.51.14.16.33.23.51.31.11.05.21.1.2.24,0,.13-.08.23-.2.25-.45.08-.77.34-1.02.71-.13.2-.37.3-.6.17-.25-.13-.11-.35-.06-.54.03-.13.15-.28.02-.39-.14-.12-.29.01-.41.08-.39.23-.77.44-.61,1.03.07.28-.26.31-.43.27-.6-.14-.89.18-1.14.64-.1.18-.24.33-.41.44-.22.13-.35.33-.4.57-.09.4-.33.69-.66.93-.83.6-1.29,1.4-1.22,2.46.02.36.06.72-.03,1.08-.17-.02-.18-.13-.23-.22-.14-.3-.2-.62-.23-.95-.08-.97-.08-.95-1.02-.97-.48-.01-.96-.13-1.29.37-.06.1-.21.06-.32.03-.85-.22-1.52.2-2.17.65-.31.22-.3.58-.21.9.15.51.25,1-.05,1.5-.12.19.02.3.19.38.75.36,1.17.29,1.73-.31.2-.21.41-.42.67-.56.15-.08.32-.22.48-.04.15.17.08.36-.06.51-.31.33-.35.68-.14,1.08.11.2.23.35.47.39.33.06.51.3.39.61-.25.68.14,1.19.41,1.73.1.21.28.2.45.1.36-.21.71-.24,1.07.02.17.12.28.03.37-.11.15-.23.29-.48.45-.7.41-.57.84-.64,1.27-.11.41.51.83.55,1.39.35.43-.15.81-.04,1.13.31.59.65,1.34,1.03,2.2,1.18.49.09.78.31,1.01.74.19.35.46.63.21,1.08-.1.18.11.29.28.32.46.07.85.29,1.24.55.48.32,1.03.4,1.59.43.4.03.75.12.9.55.07.2.26.25.44.34.48.23.56.86.14,1.17-.58.43-.76,1.05-.88,1.7-.11.61-.16,1.23-.18,1.85,0,.29-.12.46-.39.62-.52.32-.97.76-1.52,1.05-.22.11-.26.36-.26.6,0,.46,0,.93,0,1.42.67-.05,1.3-.26,2-.39-.18.35-.28.67-.49.92-.31.38-.81.29-1.23.36-.27.04-.26-.27-.33-.43-2.08-4.69-5.26-8.42-9.7-11.03-.36-.21-.36-.38-.12-.65.07-.09.14-.18.21-.27.34-.44.37-1.07.07-1.53-.1-.15-.23-.2-.37-.03-.31.38-.84.42-1.22.06-.34-.32-.69-.63-.9-1.06-.19-.38-.48-.62-.95-.52-.18.04-.29-.06-.39-.18-.19-.24-.39-.47-.54-.73-.21-.38-.51-.48-.89-.33-.66.27-1.19.14-1.64-.43-.2-.25-.51-.41-.77-.61-.24-.18-.35-.43-.22-.7.12-.25.04-.44-.09-.63-.51-.73-.9-1.52-1.17-2.37-.08-.27-.24-.46-.55-.34-.34.12-.21.38-.14.6.11.34.32.63.55.9.37.46.48,1,.5,1.62Zm32.34-5.92c-.31.42-.68.6-1.06.77-.11.05-.27.07-.24.24.03.16.15.27.31.3.5.09.83-.2,1.11-.55.2-.24-.07-.45-.12-.76Z"></path><path d="m44.13,56.76c-.61-1.26-.39-2.48.03-3.74,1.33-3.93,4.09-6.4,7.88-7.84,1.92-.73,3.91-1.1,5.95-1.3.12-.01.24,0,.43,0-.71,1.03-1.15,2.12-1.56,3.23-.38,1.03-.66,2.1-.88,3.18-.25,1.23-.59,2.43-1.17,3.54-.89,1.7-2.28,2.84-4.04,3.54-1.94.77-3.98,1.01-6.17,1.13,2.4-3.51,4.71-6.94,8.13-9.43-3.5,1.86-6.02,4.81-8.59,7.68Z"></path><path d="m36.38,34.14c-.3.65-.75.16-1.15.14-.06.38-.1.53-.54.22-.39-.27-.47-.54-.41-1.02-.63.42-1.09.14-1.48-.22-.41-.37-.86-.38-1.34-.29-.11.02-.23.19-.32,0-.07-.15,0-.29.13-.36.44-.22.89-.44,1.4-.21.45.2.86.48,1.39.42.16-.02.23.12.28.26.14.44.38.68.86.42.1-.05.22-.06.33-.08.23-.03.46-.09.53.25.04.2.4.14.38.42-.02.02-.04.05-.06.07Z"></path><path d="m36.38,34.14s.04-.05.06-.07c.05-.02.09-.05.14-.05.19,0,.44-.17.52.16.03.1,0,.19-.12.18-.22-.01-.55.22-.61-.23Z"></path></g><path d="m37.5,74.49C17.1,74.49.51,57.9.51,37.5S17.1.51,37.5.51s36.99,16.59,36.99,36.99-16.6,36.99-36.99,36.99Zm0-72C18.2,2.49,2.49,18.2,2.49,37.5s15.7,35.01,35.01,35.01,35.01-15.7,35.01-35.01S56.8,2.49,37.5,2.49Z"></path></svg>