<svg xmlns="http://www.w3.org/2000/svg" id="Layer_1" data-name="Layer 1" viewBox="0 0 75 75"><path d="m37.5,74.49C17.1,74.49.51,57.9.51,37.5S17.1.51,37.5.51s36.99,16.59,36.99,36.99-16.6,36.99-36.99,36.99Zm0-72C18.2,2.49,2.49,18.2,2.49,37.5s15.7,35.01,35.01,35.01,35.01-15.7,35.01-35.01S56.8,2.49,37.5,2.49Z"></path><g><path d="m35.28,42.25c-.24,0-.47-.12-.6-.34l-2.77-4.71,2.96-5.12h5.86l2.69,4.78c.19.33.07.76-.26.94-.33.19-.76.07-.94-.26l-2.29-4.08h-4.25l-2.16,3.73,2.36,4.01c.19.33.08.75-.25.95-.11.06-.23.1-.35.1Z"></path><g><path d="m47.73,29.93h-5.05l.83-1.45-2.7-4.71h0l2.35-4.01-2.7-4.71h-5.47l-2.7,4.71,2.7,4.71h4.64l2.35,4.01-.83,1.45h-13.36v-11.56c0-5.33,4.29-9.62,9.62-9.62h.69c5.33,0,9.62,4.36,9.62,9.62v11.56Z"></path><path d="m39.71,32.42c-.21.35-.07.76.28.97.14.07.21.07.35.07.21,0,.48-.14.62-.35l1.87-3.25h-1.59l-1.52,2.56Z"></path></g><g><path d="m35.83,41.9c.21-.35.07-.76-.28-.97s-.76-.07-.97.28l-1.59,2.7h1.59l1.25-2.01Z"></path><path d="m34.65,43.91l-1.18,2.01,2.15,3.74h4.78l2.7,4.71-2.7,4.71h-5.47l-2.7-4.71,2.21-3.88-2.49-4.57,1.18-2.01h-5.33v11.56c0,5.26,4.29,9.62,9.62,9.62h.69c5.26,0,9.62-4.29,9.62-9.62v-11.56h-13.08Z"></path></g><path d="m47.66,37.89h-4.85c-.38,0-.69-.31-.69-.69s.31-.69.69-.69h4.85c.38,0,.69.31.69.69s-.31.69-.69.69Z"></path></g></svg>