<svg xmlns="http://www.w3.org/2000/svg" xmlns:xlink="http://www.w3.org/1999/xlink" id="Layer_1" data-name="Layer 1" viewBox="0 0 75 75"><defs><style>      .cls-1 {        clip-path: url(#clippath-2);      }      .cls-2 {        clip-path: url(#clippath-1);      }      .cls-3 {        clip-path: url(#clippath);      }      .cls-4 {        fill: none;      }    </style><clipPath id="clippath"><rect class="cls-4" x="14.41" y="14.41" width="46.18" height="46.18"></rect></clipPath><clipPath id="clippath-1"><rect class="cls-4" x="14.41" y="14.41" width="46.18" height="46.18"></rect></clipPath><clipPath id="clippath-2"><rect class="cls-4" x="14.41" y="14.41" width="46.18" height="46.18"></rect></clipPath></defs><path d="m37.5,74.49C17.1,74.49.51,57.9.51,37.5S17.1.51,37.5.51s36.99,16.59,36.99,36.99-16.6,36.99-36.99,36.99Zm0-72C18.2,2.49,2.49,18.2,2.49,37.5s15.7,35.01,35.01,35.01,35.01-15.7,35.01-35.01S56.8,2.49,37.5,2.49Z"></path><g id="g1139"><g id="g76"><g id="g54"><g class="cls-3"><g id="path52"><path d="m34.93,51.44c-.07,0-.14,0-.21-.02-.35-.07-.65-.31-.83-.68l-1.13-2.35-2.25-.52-1.36-1.89-2.62-.15c-.41-.05-.76-.25-.95-.57-.18-.3-.21-.66-.08-1.01l.88-2.43-1.2-1.93.37-2.25-1.71-1.9c-.27-.31-.37-.67-.3-1.02.07-.35.31-.65.68-.83l2.35-1.13.52-2.25,1.89-1.36.15-2.62c.05-.41.25-.76.57-.95.3-.18.66-.21,1.01-.08l2.43.87,1.93-1.2,2.25.37,1.9-1.71c.31-.27.67-.37,1.02-.3.35.07.65.31.83.68h0s.86,1.83.86,1.83c.15.3.52.6.81.67l1.7.36,1.37,1.89,2.62.15c.41.05.76.25.95.57.18.3.21.66.08,1.01l-.87,2.43,1.2,1.93-.37,2.25,1.71,1.9c.27.31.37.67.3,1.02-.07.35-.31.65-.68.83l-2.35,1.13-.52,2.25-1.89,1.36-.15,2.62c-.05.41-.25.76-.57.95-.3.18-.66.21-1.01.08l-2.43-.87-1.93,1.2-2.25-.37-1.9,1.71c-.25.21-.53.32-.81.32Zm-3.79-4.53l2.36.55,1.35,2.81c.04.07.08.1.08.1,0,0,.04,0,.1-.06l2.27-2.04,2.36.38,2.03-1.26,2.93,1.05s.07.02.08.01c.02-.01.05-.06.06-.14l.17-3.08,1.97-1.43.55-2.36,2.81-1.34c.07-.04.1-.08.1-.08,0,0,0-.04-.06-.1l-2.04-2.27.38-2.36-1.26-2.03,1.05-2.93s.02-.07.01-.08c-.01-.02-.06-.05-.14-.06l-3.08-.17-1.42-1.97-1.3-.28c-.61-.14-1.25-.65-1.55-1.25l-.86-1.83c-.04-.08-.08-.1-.08-.1,0,0-.04,0-.1.06l-2.27,2.04-2.36-.38-2.03,1.26-2.93-1.05s-.07-.02-.08-.01c-.02.01-.05.06-.06.14l-.17,3.08-1.97,1.43-.55,2.36-2.81,1.34c-.07.04-.1.08-.1.08,0,0,0,.04.06.1l2.04,2.27-.38,2.36,1.26,2.03-1.05,2.93s-.02.07-.01.08c.01.02.06.05.14.06l3.08.17,1.43,1.97Z"></path></g></g></g><g id="g64"><g class="cls-2"><path id="path62" d="m43.96,35.81c0,2.15-1.45,1.72-3.22,1.72s-3.49.43-3.49-2.63,0-4.4,3.49-3.49c2.15.54,3.22,2.25,3.22,4.4m-7.13,4.02c0,3.7-.38,3.7-2.04,3.7s-2.68-.38-3.54-3.06c-.97-2.95,1.23-3.65,3.22-3.49s2.36.64,2.36,2.84m-.97-5.36c0,1.66-.32,1.23-1.72,1.23s-2.84,1.13-2.84-1.23,1.77-3.65,3.43-3.49c1.66.11,1.13,1.88,1.13,3.49m1.98,6.38c0-2.41,1.61-2.09,3.33-2.09,2.63,0,2.63.32,2.52,1.45-.16,1.72-2.2,3.75-3.59,3.86-1.93.11-2.25.32-2.25-3.22m7.4-3.11c0-4.99-2.52-7.62-7.51-7.99s-7.99.86-7.99,7.99,4.34,7.51,8.53,7.51,6.97-2.52,6.97-7.51"></path></g></g><g id="g74"><g class="cls-1"><g id="path72"><path d="m37.47,60.59c-12.75,0-23.11-10.37-23.11-23.12s10.37-23.11,23.11-23.11c6.19,0,12,2.4,16.35,6.76,4.36,4.36,6.76,10.17,6.76,16.35s-2.4,12-6.76,16.35c-4.36,4.36-10.17,6.76-16.35,6.76Zm0-45.16c-12.15,0-22.04,9.89-22.04,22.04s9.89,22.04,22.04,22.04,22.04-9.89,22.04-22.04-9.89-22.04-22.04-22.04Z"></path></g></g></g></g><polygon id="polygon78" points="16.66 20.47 24.87 24.87 20.47 16.61 19.67 19.61 16.66 20.47"></polygon><polygon id="polygon80" points="58.34 54.47 50.08 50.08 54.47 58.34 55.33 55.33 58.34 54.47"></polygon><polygon id="polygon82" points="54.47 16.61 50.08 24.87 58.34 20.47 55.33 19.61 54.47 16.61"></polygon><polygon id="polygon84" points="20.47 58.34 24.87 50.08 16.66 54.47 19.67 55.33 20.47 58.34"></polygon></g></svg>